<svg width="40" height="40" viewBox="0 0 40 40" fill="none" xmlns="http://www.w3.org/2000/svg">
<path d="M35 5L20 20" stroke="#E54C23" stroke-width="2" stroke-miterlimit="10" stroke-linecap="round"/>
<path d="M20 7V20H33" stroke="#E54C23" stroke-width="2" stroke-miterlimit="10" stroke-linecap="round"/>
<path d="M11.3513 19.1118C11.4391 18.9952 11.4927 18.8907 11.5908 18.7829C11.6906 18.6568 11.6163 18.478 11.4719 18.2417C11.3274 18.0054 7.78893 12.3347 7.66042 12.1623C7.57001 12.0765 7.45477 12.0214 7.33117 12.0051C7.20758 11.9888 7.08197 12.0119 6.97236 12.0713C6.54626 12.4876 6.1524 12.9356 5.79418 13.4116C3.95828 16.3243 2.77455 20.9677 6.11348 26.6512C6.95695 28.1725 7.99214 29.5793 9.19376 30.8371C10.4365 32.0534 11.8407 33.0928 13.3669 33.9263C18.9991 37.1089 23.6303 36.1334 26.5374 34.2919C27.0193 33.9136 27.4748 33.5029 27.9008 33.0626C27.9415 33.0073 27.9707 32.9442 27.9864 32.8773C28.0022 32.8104 28.0043 32.741 27.9925 32.6733C27.9807 32.6056 27.9553 32.5409 27.9179 32.4833C27.8804 32.4256 27.8317 32.3761 27.7746 32.3378C27.52 32.1782 22.3987 29.01 22.1488 28.8463C21.9864 28.7871 21.8113 28.7715 21.641 28.8011C21.4707 28.8306 21.3112 28.9043 21.1782 29.0148C20.1593 29.832 18.9048 30.3001 17.5996 30.3499C16.2945 30.3998 15.0079 30.0288 13.9296 29.2917C12.8226 28.5253 11.864 27.564 11.1007 26.4548C9.27042 23.3025 9.75491 21.2367 11.3513 19.1118Z" fill="#E54C23"/>
</svg>
